<svg fill="none" height="1409" viewBox="0 0 634 1409" width="634" xmlns="http://www.w3.org/2000/svg" xmlns:xlink="http://www.w3.org/1999/xlink"><linearGradient id="a"><stop offset="0" stop-color="#3fcffd"/><stop offset=".484375" stop-color="#bb9ef0"/><stop offset="1" stop-color="#ec75ff"/></linearGradient><linearGradient id="b" gradientUnits="userSpaceOnUse" x1="420.8" x2="69.4968" xlink:href="#a" y1="28.7652" y2="335.867"/><linearGradient id="c" gradientUnits="userSpaceOnUse" x1="187.884" x2="239.159" xlink:href="#a" y1="1168.47" y2="1270.81"/><linearGradient id="d" gradientUnits="userSpaceOnUse" x1="81.9792" x2="122.367" xlink:href="#a" y1="1194.9" y2="1275.51"/><linearGradient id="e" gradientUnits="userSpaceOnUse" x1="123.603" x2="151.409" xlink:href="#a" y1="1121.88" y2="1177.38"/><linearGradient id="f" gradientUnits="userSpaceOnUse" x1="48.3633" x2="399.666" xlink:href="#a" y1="675.093" y2="982.195"/><linearGradient id="g" gradientUnits="userSpaceOnUse" x1="225.493" x2="334.24" xlink:href="#a" y1="622.45" y2="481.289"/><linearGradient id="h" gradientUnits="userSpaceOnUse" x1="561.424" x2="452.677" xlink:href="#a" y1="1189.53" y2="1048.37"/><linearGradient id="i" gradientUnits="userSpaceOnUse" x1="522.598" x2="522.598" xlink:href="#a" y1="683.427" y2="797.894"/><linearGradient id="j" gradientUnits="userSpaceOnUse" x1="416.076" x2="416.076" xlink:href="#a" y1="659.613" y2="749.776"/><linearGradient id="k" gradientUnits="userSpaceOnUse" x1="485.997" x2="485.997" xlink:href="#a" y1="612.978" y2="675.053"/><linearGradient id="l" gradientUnits="userSpaceOnUse" x1="484.957" x2="423.71" xlink:href="#a" y1="310.309" y2="407.013"/><linearGradient id="m" gradientUnits="userSpaceOnUse" x1="407.707" x2="359.465" xlink:href="#a" y1="233.195" y2="309.366"/><linearGradient id="n" gradientUnits="userSpaceOnUse" x1="491.73" x2="458.516" xlink:href="#a" y1="231.209" y2="283.651"/><clipPath id="o"><path d="m0 .111084h634v1408.89h-634z"/></clipPath><g clip-path="url(#o)"><path d="m317.008 186.051c.009-.136 1.115-13.536 20.08-30.155l88.385-93.4561c1.864-.1325 4.17-.7162 6.185-2.4531 1.832-1.5859 3.943-4.6217 3.554-10.0838-.058-.8025-.289-1.5909-.68-2.287-.199-.3569-4.989-8.8367-11.472-16.2537-.762-.8713-1.546-1.7311-1.98-2.1166-6.694-8.6335-16.418-15.9374-16.782-16.2152-.641-.4853-1.392-.8191-2.175-.979-5.366-1.1202-8.652.5699-10.469 2.1741-1.99 1.7642-2.877 3.9718-3.258 5.8012l-104.143 74.9047c-25.03 15.7015-32.71 16.0575-32.699 16.0875-29.742-3.293-46.189 12.469-48.519 14.885l-149.4869 129.857c-15.7327 13.753-13.6063 26.146-12.611 29.549 2.7061 18.598 23.7784 44.784 28.0006 49.881l.0091-.008c.0894.139.4472.567.5588.694.1476.169.3002.325.462.474 5.2382 5.633 27.7117 28.984 45.3424 34.028 3.24 1.441 15.232 5.217 30.956-8.528l149.483-129.862c2.658-1.93 20.546-16.118 21.259-45.938zm-27.721 37.166c-.166.113-.334.244-.493.375l-149.692 130.036c-11.86 10.368-18.989 6.991-19.143 6.925-.417-.247-.868-.44-1.34-.566-12.625-3.386-31.699-21.339-40.9852-31.4-.1037-.119-.2114-.242-.3071-.352-8.7382-10.548-23.9725-31.85-25.6438-44.818-.0489-.36-.1968-.907-.3067-1.253-.1121-.313-2.5019-7.824 9.3399-18.176l149.6829-130.029c.159-.139.32-.296.46-.458.125-.142 13.474-14.523 39.321-11.672 2.862.411 12.475-.476 40.152-17.863l106.447-76.5407c1.359-.978 2.257-2.8498 2.347-4.5785 2.372 1.9025 7.32 6.0906 11.535 10.9121.634.7253 1.254 1.4711 2.222 2.6525 5.136 5.3127 9.506 12.1713 11.292 15.108-1.803-.3143-3.656.2913-4.914 1.6238l-89.727 94.9028c-22.47 19.643-23.393 36.778-23.425 37.587-.617 25.88-16.195 37.141-16.822 37.584z" fill="url(#b)"/><path d="m163.768 1240.21c-3.588-7.16-7.126-14.48-10.814-21.59-2.88-5.49-2.38-10.29 1.905-14.83 10.484-11.31 20.615-22.82 31.402-33.78 2.52-2.52 7.21-4.49 10.843-4.29 14.58.64 29.212 2.14 43.793 3.29 5.146.45 8.679 2.72 11.003 7.36 7.176 14.57 14.453 29.09 21.881 43.67 2.779 5.55 2.379 10.29-1.855 14.93-10.484 11.31-20.867 22.57-31.2 33.93-3.175 3.48-6.907 4.85-11.549 4.4-14.379-1.25-28.758-2.5-43.188-3.6-5.247-.4-8.679-2.72-10.903-7.41-3.84-7.41-7.629-14.72-11.318-22.08zm90.882-33.42c-2.527-5.05-4.902-10.04-7.53-15.03-2.93-5.6-5.806-6.05-10.191-1.46-6.755 7.17-13.358 14.64-20.213 21.86-2.419 2.48-2.972 4.9-1.406 8.03 5.306 10.34 10.258 20.72 15.665 31.01 2.476 4.69 5.604 5.14 9.233 1.3 7.107-7.47 13.962-15.19 20.969-22.61 2.369-2.58 2.669-5 1.002-8.08-2.728-4.94-5.104-9.93-7.529-15.02zm-41.545 31.16c-2.324-4.64-4.397-9.53-7.226-13.92-1.262-2.02-4.039-4.03-6.41-4.23-8.376-1.11-16.751-1.7-25.226-2.25-5.853-.35-7.919 2.83-5.392 8.12 4.75 9.74 9.501 19.47 14.654 29 .91 1.82 3.383 3.73 5.301 4.03 8.728 1.05 17.507 1.7 26.336 2.2 5.449.3 7.565-3.03 5.341-7.98-2.123-4.99-4.851-9.93-7.378-14.97zm-7.792-28.4c.756-.5 1.26-.76 1.663-1.21 6.704-7.27 13.61-14.39 20.112-21.81 3.125-3.59 1.103-7.62-3.992-8.22-8.123-.85-16.398-1.5-24.571-1.95-1.816-.1-4.186.71-5.447 1.97-6.653 6.87-13.105 13.89-19.405 20.96-3.276 3.78-1.911 8.02 3.034 8.57 8.577 1 17.154 1.5 25.68 2.15 1.059.1 2.119-.31 2.926-.46z" fill="url(#c)"/><path d="m142.868 1222.92c1.718 3.93 4.044 9.83 6.672 15.58 1.92 4.34 1.318 7.92-2.06 11.26-9.275 8.93-18.348 18.27-28.027 26.91-2.37 2.07-6.96 3.23-10.138 2.68-10.8991-2.11-21.5965-4.83-32.1935-8.1-3.1287-.95-6.5615-3.77-8.0269-6.7-5.2556-10.74-9.6034-21.94-14.3546-32.93-1.7185-3.93-1.015-7.31 1.9086-10.29 9.628-9.5 19.1046-19.04 29.187-28.13 2.0165-1.76 6.0013-2.63 8.7261-1.97 11.4033 2.36 22.7063 5.28 33.7573 8.45 2.523.75 5.199 3.07 6.513 5.44 2.778 5.04 4.801 10.59 8.036 17.8zm-45.7621-5.21c-1.5665-3.13-3.1835-6.35-4.75-9.48-2.4761-4.94-4.4439-5.34-8.3759-1.61-5.9988 5.66-11.7452 11.57-17.744 17.22-2.9238 2.73-3.3757 5.35-1.7079 8.93 3.0323 6.56 5.8126 13.37 8.7441 19.97 2.1732 4.84 4.4942 5.2 8.4261 1.46 3.1759-2.98 6.2004-6.01 9.2248-9.04 12.2999-11.97 12.2999-11.97 6.1828-27.45zm16.8931 52.86c6.906-6.87 14.014-13.84 20.718-21.11.504-.5-1.165-4.84-2.477-5.19-6.762-2.16-13.775-3.82-20.688-5.28-1.413-.3-3.531.25-4.54 1.26-6.452 6.01-12.7028 12.17-18.9029 18.43-2.8733 2.83-2.316 5.71 1.5696 6.91 6.8123 2.02 13.7753 3.57 20.6883 5.28.908.05 2.169-.2 3.632-.3zm18.322-50.82-.101.05c-1.213-2.92-2.124-6-3.74-8.72-.91-1.57-2.576-3.38-4.241-3.93-5.854-1.87-11.909-3.38-17.964-4.63-4.793-1.01-6.8092 1.52-5.04 6.06 2.578 6.4 5.358 12.71 8.289 19.06.758 1.51 2.223 3.18 3.737 3.68 6.106 1.86 12.312 3.42 18.518 4.73 4.39.95 6.457-1.47 4.889-5.86-1.163-3.58-2.881-7.01-4.347-10.44z" fill="url(#d)"/><path d="m142.884 1181.65c-1.463-.15-3.884.06-6.105-.6-7.72-2.31-15.34-4.93-23.061-7.24-4.289-1.26-5.956-3.83-6.111-8.17-.31-8.43-.619-16.85-1.231-25.12-.357-4.24 1.255-7.07 4.785-9.34 6.101-3.94 12.05-8.44 18.252-12.17 2.219-1.37 5.8-2.03 8.273-1.37 7.973 2.06 15.694 4.88 23.616 7.34 3.734 1.16 5.552 3.53 5.707 7.36.411 9.14 1.074 18.27 1.385 27.45.001 2.02-.854 4.84-2.316 5.95-7.261 5.15-14.723 10.16-23.194 15.91zm-6.03-32.94c-.808-.6-1.464-1.41-2.373-1.71-5.803-2.01-11.606-4.02-17.662-5.53-1.009-.25-3.781 2.27-3.78 3.53-.096 6.36.414 12.66.923 18.97.153 1.31 1.365 3.23 2.475 3.68 5.602 2.11 11.304 3.93 17.006 5.49 1.161.3 3.884-1.07 3.884-1.57.145-7.52-.164-15.19-.473-22.86zm10.058 22.6c5.344-3.69 9.479-6.27 13.26-9.3 1.109-.8 1.864-2.82 1.863-4.34-.105-5.75-.362-11.55-.821-17.25-.407-4.34-2.274-5.04-5.955-2.57-3.58 2.43-7.16 4.85-10.538 7.43-1.16.96-2.369 2.57-2.317 3.93.055 6.16.211 12.26.872 18.37.153 1.56 2.474 2.67 3.636 3.73zm-6.583-29.76c4.235-2.88 7.866-5.2 11.344-7.83 3.278-2.53 2.721-4.64-1.165-5.85-4.642-1.46-9.234-3.07-13.877-4.28-1.312-.35-3.077-.1-4.136.56-3.681 2.22-7.21 4.75-10.689 7.37-3.479 2.63-2.468 4.65 1.064 5.91 4.441 1.56 8.831 3.02 13.373 4.27 1.513.25 3.228-.1 4.086-.15z" fill="url(#e)"/><path d="m152.155 832.379c-.009-.137-1.115-13.537-20.08-30.156l-88.3851-93.455c-1.8638-.133-4.1701-.717-6.1846-2.453-1.8326-1.586-3.9428-4.622-3.5538-10.084.0578-.803.2882-1.591.6795-2.287.1993-.357 4.9887-8.837 11.4725-16.254.7617-.871 1.5455-1.731 1.9791-2.117 6.6941-8.633 16.4188-15.937 16.7823-16.215.6416-.485 1.392-.819 2.1757-.979 5.365-1.12 8.6516.57 10.4683 2.174 1.9905 1.765 2.8773 3.972 3.2577 5.802l104.1434 74.904c25.03 15.701 32.71 16.057 32.699 16.088 29.742-3.293 46.189 12.469 48.519 14.884l149.487 129.858c15.733 13.753 13.606 26.146 12.611 29.549-2.706 18.598-23.778 44.784-28.001 49.881l-.009-.008c-.089.139-.447.566-.559.694-.147.169-.3.325-.462.473-5.238 5.633-27.711 28.982-45.342 34.032-3.24 1.44-15.232 5.21-30.956-8.53l-149.482-129.863c-2.659-1.93-20.546-16.118-21.26-45.938zm27.721 37.166c.167.113.334.243.493.374l149.692 130.037c11.86 10.364 18.989 6.994 19.143 6.924.417-.25.868-.44 1.34-.57 12.625-3.38 31.699-21.334 40.985-31.396.104-.118.212-.241.307-.351 8.739-10.548 23.973-31.851 25.644-44.818.049-.36.197-.907.307-1.253.112-.313 2.502-7.824-9.34-18.176l-149.683-130.029c-.159-.139-.32-.296-.46-.458-.125-.142-13.474-14.524-39.321-11.672-2.862.411-12.475-.476-40.152-17.863l-106.4473-76.541c-1.3581-.978-2.2567-2.85-2.347-4.578-2.3713 1.902-7.32 6.09-11.5349 10.912-.634.725-1.2538 1.471-2.2221 2.652-5.1352 5.313-9.5053 12.171-11.2919 15.108 1.8038-.314 3.6564.291 4.9138 1.624l89.7274 94.903c22.47 19.643 23.393 36.777 23.426 37.587.616 25.88 16.194 37.14 16.821 37.584z" fill="url(#f)"/><path d="m273.878 436.661c-2.125.488-1.152-1.262-44.861 79.159-8.214 15.041-20.465 37.595-27.3 50.199-6.914 12.543-12.783 23.893-13.177 25.214l-.544 2.33 37.564 28.938c35.055 27.006 37.782 28.982 39.376 28.21.996-.482 30.217-27.707 64.995-60.523 52.397-49.36 63.227-60.012 63.089-61.618-.017-1.762-6.64-7.115-58.635-47.17-51.837-39.934-58.859-45.094-60.507-44.739zm104.897 92.557c-2.779 3.608-79.818 75.222-82.269 76.458-1.793.868-5.228 1.596-7.625 1.624l-4.376.003-29.644-22.837c-28.781-22.172-29.583-22.915-30.571-26.175-2.101-7.492-2.161-7.414 25.828-58.831 14.481-26.584 26.526-48.546 26.828-48.938.665-.863 102.494 77.834 101.829 78.696zm-133.015 62.358c22.387 17.496 29.487 22.716 33.446 24.391 5.967 2.473 6.457 1.35-6.631 13.636l-9.761 9.101-31.134-23.984-31.134-23.985 6.31-11.76c8.093-14.884 8.214-15.041 9.521-12.034.651 1.751 7.938 7.864 29.383 24.635z" fill="url(#g)"/><path d="m513.039 1003.74c2.125.49 1.152-1.26 44.861 79.16 8.214 15.04 20.465 37.59 27.3 50.2 6.914 12.54 12.783 23.89 13.177 25.21l.544 2.33-37.564 28.94c-35.055 27-37.782 28.98-39.376 28.21-.996-.48-30.217-27.71-64.995-60.52-52.397-49.36-63.227-60.02-63.089-61.62.017-1.76 6.64-7.12 58.635-47.17 51.837-39.94 58.859-45.1 60.507-44.74zm-104.897 92.56c2.779 3.6 79.818 75.22 82.269 76.45 1.793.87 5.228 1.6 7.625 1.63h4.376l29.644-22.84c28.781-22.17 29.583-22.91 30.571-26.17 2.101-7.49 2.161-7.41-25.828-58.83-14.481-26.59-26.526-48.55-26.828-48.94-.665-.86-102.494 77.83-101.829 78.7zm133.015 62.35c-22.387 17.5-29.487 22.72-33.446 24.39-5.967 2.48-6.457 1.36 6.631 13.64l9.761 9.1 31.134-23.98 31.134-23.99-6.31-11.76c-8.093-14.88-8.214-15.04-9.521-12.03-.651 1.75-7.938 7.86-29.383 24.63z" fill="url(#h)"/><path d="m468.904 736.759c0-8.009.112-16.131 0-24.141-.113-6.204 2.481-10.265 8.347-12.409 14.44-5.414 28.654-11.168 43.206-16.131 3.384-1.128 8.46-.79 11.619 1.015 12.747 7.107 25.156 15.004 37.678 22.562 4.399 2.707 6.543 6.317 6.543 11.506-.113 16.244-.113 32.489 0 48.846 0 6.204-2.482 10.265-8.348 12.521-14.44 5.415-28.766 10.83-43.093 16.358-4.399 1.692-8.347 1.24-12.296-1.241-12.296-7.559-24.592-15.117-37.001-22.562-4.512-2.707-6.543-6.317-6.43-11.506-.113-8.348-.225-16.583-.225-24.818zm96.225 10.83c0-5.641.112-11.168 0-16.809-.113-6.317-2.482-8.009-8.461-5.866-9.25 3.384-18.5 7.107-27.863 10.491-3.272 1.128-4.851 3.046-4.851 6.543.113 11.619-.113 23.126.113 34.745.112 5.302 2.707 7.107 7.671 5.302 9.701-3.497 19.29-7.333 28.878-10.83 3.272-1.241 4.625-3.271 4.513-6.768-.226-5.64-.113-11.168 0-16.808zm-51.102 9.25c0-5.189.338-10.491-.226-15.681-.225-2.368-1.805-5.414-3.835-6.655-6.994-4.738-14.214-9.025-21.547-13.311-5.076-2.933-8.347-1.016-8.46 4.85-.113 10.83-.226 21.659.113 32.489 0 2.03 1.353 4.851 2.933 5.979 7.332 4.85 14.89 9.363 22.561 13.762 4.738 2.708 8.122.677 8.348-4.738.338-5.414.113-11.055.113-16.695zm5.753-28.879c.902-.113 1.466-.113 2.03-.338 9.251-3.497 18.614-6.769 27.751-10.492 4.4-1.804 4.4-6.317.113-9.137-6.881-4.399-13.988-8.686-21.095-12.747-1.579-.903-4.061-1.241-5.753-.677-9.025 3.159-17.937 6.543-26.736 10.04-4.625 1.918-5.302 6.317-1.128 9.024 7.22 4.738 14.665 9.025 21.998 13.425.902.564 2.03.676 2.82.902z" fill="url(#i)"/><path d="m457.961 711.941c-.225 4.287-.789 10.604-1.015 16.921-.226 4.738-2.369 7.671-6.881 9.138-12.296 3.835-24.592 8.122-37.114 11.506-3.046.79-7.671-.225-10.266-2.143-8.799-6.769-17.146-13.988-25.156-21.659-2.369-2.256-4.174-6.317-4.174-9.589.113-11.957 1.241-23.915 1.918-35.873.226-4.286 2.369-6.994 6.317-8.347 12.861-4.174 25.608-8.461 38.693-12.071 2.595-.677 6.543.339 8.687 2.144 9.137 7.219 17.936 14.89 26.397 22.674 1.917 1.805 3.271 5.076 3.384 7.784.226 5.753-.451 11.619-.79 19.515zm-38.58-25.156c0-3.497 0-7.107 0-10.604 0-5.527-1.579-6.768-6.768-5.189-7.897 2.369-15.681 5.076-23.577 7.445-3.836 1.129-5.415 3.272-5.528 7.22-.225 7.22-.789 14.552-1.128 21.772-.226 5.302 1.692 6.656 6.881 5.076 4.174-1.241 8.235-2.594 12.296-3.948 16.358-5.189 16.358-5.189 17.824-21.772zm-8.573 54.825c9.25-3.046 18.726-6.092 27.976-9.589.677-.226 1.128-4.851.113-5.753-5.077-4.964-10.604-9.589-16.132-13.988-1.128-.903-3.271-1.354-4.625-.903-8.46 2.482-16.808 5.189-25.156 8.01-3.835 1.241-4.625 4.061-1.692 6.881 5.189 4.851 10.717 9.363 16.131 13.988.79.451 2.031.79 3.385 1.354zm39.144-37.227h-.113c.226-3.158.79-6.317.564-9.476-.113-1.805-.79-4.174-2.03-5.414-4.4-4.287-9.138-8.348-13.989-12.184-3.835-3.045-6.768-1.692-7.219 3.159-.564 6.881-.903 13.763-1.128 20.757 0 1.692.564 3.835 1.692 4.963 4.625 4.4 9.476 8.574 14.439 12.522 3.497 2.82 6.43 1.579 6.994-3.046.564-3.723.564-7.558.79-11.281z" fill="url(#j)"/><path d="m476.462 675.053c-1.241-.789-3.497-1.692-5.189-3.271-5.866-5.528-11.507-11.281-17.373-16.809-3.271-3.045-3.61-6.091-1.805-10.039 3.497-7.671 6.994-15.342 10.153-23.013 1.579-3.948 4.287-5.753 8.461-6.205 7.219-.789 14.552-2.143 21.771-2.707 2.595-.226 6.092.79 8.01 2.482 6.204 5.415 11.845 11.393 17.823 17.147 2.821 2.707 3.385 5.64 1.805 9.137-3.722 8.348-7.219 16.808-11.055 25.156-.902 1.805-2.933 3.948-4.738 4.287-8.799 1.353-17.711 2.482-27.863 3.835zm9.363-32.15c-.451-.902-.677-1.918-1.354-2.595-4.287-4.399-8.573-8.799-13.311-12.86-.79-.676-4.4.339-4.964 1.467-2.933 5.64-5.302 11.506-7.671 17.372-.451 1.241-.225 3.497.564 4.4 4.061 4.399 8.348 8.573 12.748 12.521.902.79 3.948.79 4.174.339 3.497-6.656 6.655-13.65 9.814-20.644zm-1.128 24.705c6.43-.903 11.28-1.354 16.018-2.369 1.354-.226 2.933-1.692 3.61-3.046 2.482-5.189 4.851-10.491 6.994-15.793 1.58-4.061.226-5.528-4.174-4.963-4.286.564-8.573 1.128-12.747 1.917-1.466.339-3.271 1.241-3.835 2.482-2.708 5.528-5.302 11.055-7.446 16.808-.564 1.467 1.016 3.497 1.58 4.964zm7.445-29.556c5.076-.677 9.363-1.128 13.65-1.917 4.061-.79 4.512-2.933 1.579-5.754-3.497-3.384-6.881-6.881-10.491-10.04-1.015-.902-2.707-1.466-3.948-1.353-4.287.338-8.574 1.015-12.86 1.805-4.287.789-4.287 3.046-1.693 5.753 3.272 3.384 6.543 6.656 10.04 9.814 1.241.903 2.933 1.354 3.723 1.692z" fill="url(#k)"/><path d="m411.059 326.635c4.286-6.766 8.727-13.568 12.917-20.395 3.224-5.302 7.589-7.344 13.692-6.016 15.096 3.151 30.182 5.896 45.132 9.489 3.462.858 7.57 3.86 9.272 7.075 6.967 12.824 13.225 26.135 19.76 39.22 2.268 4.641 2.147 8.837-.63 13.221-8.787 13.663-17.478 27.387-26.135 41.266-3.32 5.242-7.589 7.345-13.752 6.112-15.096-3.151-30.096-6.243-45.157-9.238-4.622-.925-7.717-3.419-9.724-7.628-6.344-12.964-12.688-25.928-19.187-38.858-2.364-4.701-2.148-8.837.724-13.161 4.371-7.113 8.682-14.13 13.088-21.087zm75.498 60.635c3.018-4.765 6.071-9.375 8.994-14.2 3.284-5.397 2.188-8.094-4.009-9.483-9.626-2.09-19.432-3.894-29.153-6.045-3.368-.798-5.728-.022-7.599 2.932-6.122 9.876-12.469 19.476-18.495 29.413-2.742 4.54-1.516 7.453 3.643 8.584 10.068 2.236 20.22 4.126 30.192 6.303 3.428.702 5.658-.289 7.434-3.304 2.827-4.886 5.88-9.495 8.993-14.2zm-48.121-19.528c2.777-4.384 5.899-8.682 8.199-13.368 1.077-2.122 1.373-5.54.321-7.674-3.373-7.745-7.179-15.23-11.08-22.775-2.719-5.194-6.509-5.324-9.743-.429-5.89 9.089-11.78 18.178-17.288 27.508-1.087 1.715-1.452 4.822-.721 6.62 3.599 8.021 7.57 15.877 11.696 23.699 2.554 4.822 6.5 4.917 9.588.463 3.183-4.393 6.01-9.279 9.028-14.044zm20.312-21.319c.823.388 1.3.69 1.897.801 9.686 1.995 19.346 4.241 29.057 5.985 4.683.829 7.097-2.983 4.985-7.659-3.46-7.399-7.17-14.823-11.001-22.056-.851-1.608-2.767-3.222-4.498-3.65-9.315-2.161-18.654-4.07-27.959-5.824-4.933-.854-7.859 2.5-5.781 7.021 3.564 7.866 7.56 15.471 11.401 23.111.46.959 1.353 1.658 1.899 2.271z" fill="url(#l)"/><path d="m415.094 299.814c-2.484 3.501-6.341 8.536-9.911 13.752-2.726 3.882-6.106 5.213-10.703 4.037-12.44-3.338-25.121-6.296-37.511-10.137-2.995-.962-6.359-4.295-7.525-7.303-3.812-10.426-7.002-20.992-9.664-31.758-.794-3.174-.146-7.57 1.605-10.334 6.493-10.042 13.844-19.54 20.814-29.28 2.484-3.501 5.743-4.641 9.803-3.672 13.098 3.355 26.161 6.554 39.147 10.506 2.554.816 5.347 3.786 6.192 6.458 3.856 10.988 7.185 22.177 10.168 33.28.654 2.55.048 6.039-1.306 8.386-2.887 4.981-6.598 9.575-11.109 16.065zm-19.133-41.895c1.871-2.955 3.803-6.004 5.674-8.959 2.957-4.669 2.287-6.563-2.942-8.005-7.939-2.224-15.963-4.101-23.902-6.325-3.843-1.099-6.325-.133-8.532 3.142-4.054 5.978-8.454 11.871-12.603 17.789-3.027 4.359-2.131 6.529 3.098 7.971 4.19 1.185 8.345 2.214 12.5 3.243 16.595 4.369 16.595 4.369 26.707-8.856zm-36.577 41.729c9.444 2.376 19.079 4.873 28.765 6.869.693.171 3.548-3.495 3.174-4.801-1.633-6.909-3.828-13.774-6.144-20.448-.47-1.366-2.04-2.894-3.425-3.237-8.475-2.431-16.976-4.61-25.537-6.694-3.904-1.004-6.081.956-5.112 4.908 1.789 6.875 4.044 13.644 6.144 20.449.426.804 1.293 1.753 2.135 2.954zm52.988-10.505-.096-.06c1.881-2.548 4.048-4.915 5.547-7.704.871-1.585 1.566-3.948 1.182-5.661-1.423-5.975-3.253-11.941-5.299-17.777-1.61-4.625-4.813-5.051-7.789-1.194-4.159 5.511-8.126 11.144-12.059 16.932-.906 1.429-1.576 3.542-1.226 5.098 1.553 6.192 3.418 12.313 5.498 18.305 1.446 4.253 4.588 4.774 7.539 1.169 2.468-2.843 4.52-6.084 6.703-9.108z" fill="url(#m)"/><path d="m450.461 278.549c-.626-1.331-2.049-3.301-2.634-5.54-1.998-7.809-3.685-15.687-5.683-23.495-1.134-4.324.21-7.078 3.847-9.448 7.059-4.609 14.118-9.219 20.891-14.009 3.447-2.491 6.7-2.567 10.467-.715 6.522 3.196 13.441 5.976 19.842 9.362 2.313 1.198 4.724 3.926 5.438 6.382 2.345 7.894 3.911 15.963 5.884 24.023.934 3.796-.159 6.575-3.365 8.685-7.611 5.06-15.092 10.337-22.799 15.337-1.728 1.042-4.591 1.766-6.296 1.086-8.158-3.564-16.291-7.379-25.592-11.668zm25.112-22.151c.102-1.004.454-1.983.245-2.917-1.268-6.01-2.535-12.02-4.365-17.986-.305-.995-3.898-2.068-4.978-1.417-5.496 3.196-10.636 6.884-15.776 10.572-1.045.807-2.061 2.834-1.877 4.019 1.077 5.889 2.465 11.709 4.069 17.399.34 1.15 2.913 2.779 3.345 2.519 6.516-3.752 12.926-7.971 19.337-12.189zm-14.171 20.267c5.915 2.678 10.254 4.892 14.8 6.57 1.264.534 3.383.14 4.679-.642 4.873-3.056 9.712-6.267 14.359-9.6 3.507-2.586 3.148-4.549-.87-6.426-3.923-1.818-7.847-3.635-11.795-5.201-1.42-.499-3.428-.702-4.569.045-5.244 3.221-10.394 6.502-15.283 10.216-1.261.937-1.013 3.497-1.321 5.038zm22.103-20.985c4.651 2.144 8.514 4.057 12.558 5.683 3.853 1.506 5.381-.063 4.413-4.015-1.144-4.73-2.132-9.496-3.492-14.095-.374-1.306-1.502-2.688-2.611-3.257-3.802-2.007-7.786-3.729-11.83-5.356-4.044-1.626-5.251.28-4.508 3.955.953 4.61 1.967 9.124 3.231 13.663.565 1.427 1.753 2.713 2.239 3.422z" fill="url(#n)"/></g></svg>